<svg width="128" height="58" viewBox="0 0 128 58" fill="none" xmlns="http://www.w3.org/2000/svg">
<path d="M63.3719 1.27296C72.1658 1.27296 80.1138 4.90824 85.8085 10.7586L86.712 9.8697C80.7906 3.7808 72.5222 0.000976562 63.3719 0.000976562C54.2215 0.000976562 45.9531 3.7808 40.0281 9.8697L40.9352 10.7586C46.6263 4.91185 54.5779 1.27296 63.3719 1.27296ZM63.3719 14.7191C68.7569 14.7191 73.5913 17.1005 76.8886 20.8695L77.8425 20.0275C74.3184 15.9911 69.1421 13.4399 63.3755 13.4399C57.6052 13.4399 52.4325 15.9911 48.9049 20.0275L49.8588 20.8695C53.1489 17.1005 57.9832 14.7191 63.3719 14.7191ZM81.0174 9.03496C80.6394 8.74588 80.3622 8.85067 80.103 9.01328L72.9829 13.6568L74.4876 14.5059L79.6207 11.1598L78.8108 13.9711L78.1448 13.458L76.7878 14.3433L78.3572 15.5539L77.9001 17.133L79.2355 18.3617L81.5897 10.1588C81.6833 9.8697 81.7121 9.56977 81.3341 9.28069L81.0174 9.03496ZM49.8516 14.6794C50.2871 14.3253 50.5787 13.8447 50.6219 13.364C50.6759 12.7786 50.5175 12.3739 49.9596 11.6873L47.1302 8.18938L48.3865 7.16673L51.4822 10.9899C52.1266 11.7921 52.3929 12.6016 52.2957 13.4652C52.1841 14.4409 51.7234 15.2287 50.8703 15.9297C50.0136 16.6271 49.146 16.9198 48.1705 16.8295C47.3066 16.7464 46.5723 16.32 45.9244 15.525L42.8287 11.6982L44.0849 10.6755L46.9179 14.1735C47.4722 14.8601 47.8358 15.1022 48.4189 15.1672C48.8869 15.2214 49.416 15.0371 49.8516 14.6794ZM56.6081 5.62734L56.9789 7.46666L60.6541 6.71503L60.9529 8.19661L57.2777 8.94824L57.436 9.72155C57.6088 10.578 57.9472 10.7261 58.7103 10.5707L61.6656 9.96727L61.9716 11.4705L58.9263 12.0921C57.5152 12.3812 56.241 11.9764 55.8846 10.2166L54.8371 5.05278C54.7615 4.67335 54.9667 4.40233 55.3122 4.33006L60.3194 3.30742L60.6253 4.81067L56.6081 5.62734ZM67.5187 11.9909L66.536 11.7343C66.194 11.644 66.0032 11.3621 66.104 10.9863L67.4359 5.88391C67.8894 4.14938 69.1817 3.82055 70.5748 4.18552L73.5805 4.9769L73.1917 6.46208L70.276 5.69239C69.5201 5.49364 69.1745 5.62012 68.9513 6.4657L68.7533 7.23178L72.3854 8.18577L72.0038 9.64566L68.3718 8.68806L67.5187 11.9909ZM97.9717 55.1011H98.3533C98.6197 55.1011 98.8608 55.0866 98.8608 54.7614C98.8608 54.5012 98.6268 54.4542 98.4037 54.4542H97.9717V55.1011ZM97.9717 55.3721V56.2827H97.6585V54.1832H98.4541C98.9472 54.1832 99.192 54.3675 99.192 54.7795C99.192 55.1553 98.958 55.3179 98.652 55.3576L99.2424 56.2827H98.8896L98.3389 55.3721H97.9717ZM96.8774 55.2239C96.8774 56.102 97.5254 56.7489 98.3569 56.7489C99.1776 56.7489 99.8255 56.102 99.8255 55.2239C99.8255 54.3639 99.174 53.7134 98.3569 53.7134C97.5254 53.7134 96.8774 54.3639 96.8774 55.2239ZM98.3569 57.0524C97.3598 57.0524 96.5139 56.2827 96.5139 55.2239C96.5139 54.1796 97.3598 53.4099 98.3569 53.4099C99.3432 53.4099 100.193 54.1796 100.193 55.2239C100.189 56.2827 99.3432 57.0524 98.3569 57.0524ZM88.4974 43.9929V51.885C88.4974 52.3114 88.3139 52.5065 87.7991 52.5282V52.9437H95.8155C95.8335 52.1054 95.8623 51.296 95.9991 50.0493H95.4952C95.2396 51.3285 94.9804 51.6031 94.1597 51.6031H90.7436V48.3906H92.763C93.4434 48.3906 93.5513 48.6219 93.6449 49.1675H94.0553C94.0121 48.8026 93.9689 48.1304 93.9689 47.7185C93.9689 47.3102 94.0121 46.6525 94.0553 46.2694H93.6449C93.5513 46.8151 93.4434 47.0464 92.763 47.0464H90.7436V44.1519H93.9905C94.8112 44.1519 95.0236 44.441 95.1748 45.2793H95.5887C95.5131 44.4554 95.4808 43.7761 95.4664 42.9377H87.7955V43.3533C88.3174 43.3677 88.4974 43.5701 88.4974 43.9929ZM76.2082 43.9459V49.6373C76.2082 52.2427 77.6661 53.1461 80.3982 53.1461C83.1304 53.1461 84.5918 52.2463 84.5918 49.4277V43.9459C84.5918 43.5159 84.7718 43.3207 85.2901 43.3063V42.8871C84.8006 42.9341 84.1814 42.9775 83.5443 42.9775C82.7524 42.9775 82.1296 42.9305 81.5249 42.8871V43.3063C82.1764 43.3352 82.3456 43.4581 82.3456 44.0507V49.7457C82.3456 51.4369 81.6329 51.8055 80.4018 51.8055C79.1743 51.8055 78.458 51.4694 78.458 49.7457V44.0507C78.458 43.4581 78.6236 43.3352 79.2787 43.3063V42.8871C78.6704 42.9341 78.0512 42.9775 77.2593 42.9775C76.6222 42.9775 75.9994 42.9305 75.5135 42.8871V43.3063C76.0246 43.3207 76.2082 43.5159 76.2082 43.9459ZM70.1968 49.3844V50.4757C70.1968 51.1767 69.6065 51.679 68.5266 51.679C66.7663 51.679 65.7008 49.547 65.7008 47.6571C65.7008 45.6949 66.7339 44.0688 68.8469 44.0688C70.1068 44.0688 71.3883 44.7409 71.5827 46.096H72.0218C71.9606 45.048 71.9282 44.1844 71.9282 43.44C71.1111 42.9269 69.9844 42.7317 68.9369 42.7317C65.6576 42.7317 63.4547 44.7337 63.4547 48.0401C63.4547 50.7828 65.2797 53.1461 68.1306 53.1461C69.1637 53.1461 70.168 52.8245 71.1219 51.9283L71.4711 52.9474H72.3494V49.5361C72.3494 48.8495 72.623 48.7122 73.1557 48.6942V48.2172C72.4754 48.2641 71.8058 48.3111 71.1219 48.3111C70.4848 48.3111 69.862 48.2605 69.2393 48.2172V48.7267C69.9232 48.7411 70.1968 48.7737 70.1968 49.3844ZM57.9472 48.5677H55.8054C56.2014 47.4908 56.6873 46.2875 57.0365 45.0733H57.0653C57.3712 46.6055 57.6268 47.5776 57.9472 48.5677ZM52.1302 52.5282V52.9437C52.6629 52.8968 53.1777 52.8498 53.7104 52.8498C54.2252 52.8498 54.7579 52.8968 55.2762 52.9437V52.5282C54.7723 52.4993 54.5635 52.315 54.5635 52.0403C54.5635 51.8922 54.6103 51.7224 54.6859 51.5092L55.3554 49.7168H58.3144L58.8003 51.1912C58.8795 51.3899 58.9551 51.7368 58.9551 51.9536C58.9551 52.3005 58.7571 52.4234 58.1956 52.5282V52.9437C58.8471 52.8968 59.5022 52.8498 60.1538 52.8498C60.7909 52.8498 61.4461 52.8968 62.0832 52.9437V52.5282C61.6296 52.4089 61.4029 52.2102 61.1689 51.5417L58.3791 42.8763C57.9076 42.9233 57.4216 42.9666 56.9537 42.9666C56.4821 42.9666 56.0142 42.9196 55.5282 42.8763V43.2882C55.935 43.2882 56.1042 43.534 56.1042 43.6857C56.1042 43.8411 55.9998 44.0507 55.9098 44.282L52.9329 51.8308C52.7709 52.2283 52.5729 52.4668 52.1302 52.5282ZM42.8107 43.9929V51.885C42.8107 52.3114 42.6271 52.5065 42.1123 52.5282V52.9437H50.1323C50.1467 52.1054 50.1791 51.296 50.3159 50.0493H49.812C49.5564 51.3285 49.2972 51.6031 48.4765 51.6031H45.064V48.4376H47.0798C47.7638 48.4376 47.8718 48.6653 47.9618 49.2145H48.3757C48.3325 48.8495 48.2857 48.1738 48.2857 47.7655C48.2857 47.3535 48.3325 46.6958 48.3757 46.3164H47.9618C47.8718 46.8621 47.7638 47.0933 47.0798 47.0933H45.064V44.1519H48.3109C49.1316 44.1519 49.344 44.441 49.4952 45.2793H49.9128C49.8372 44.4554 49.8084 43.7761 49.7904 42.9377H42.1231V43.3533C42.6307 43.3677 42.8107 43.5701 42.8107 43.9929ZM33.1528 43.9459V51.8886C33.1528 52.315 32.9692 52.5101 32.4545 52.5318V52.9474H40.0029C40.0173 51.9572 40.1829 50.978 40.3665 49.9878H39.8769C39.6214 51.1478 39.211 51.6031 38.2067 51.6031H35.399V44.141C35.399 43.7146 35.507 43.3352 36.2809 43.3063V42.8871C35.8417 42.9341 34.9166 42.9775 34.2759 42.9775C33.7143 42.9775 33.1204 42.9305 32.4545 42.8871V43.3063C32.9692 43.3207 33.1528 43.5159 33.1528 43.9459ZM11.8717 36.0863L12.12 33.6363C10.9501 34.6264 9.20071 35.2913 7.98403 35.2913C5.1187 35.2913 3.0777 32.4763 3.0777 29.9902C3.0777 26.691 4.98912 24.7324 7.46208 24.7324C9.2835 24.7324 10.5506 25.7009 10.8997 27.5293H11.4685C11.3605 26.0947 11.2813 24.6529 11.2813 23.1569C10.781 22.9581 9.50308 22.6221 7.72485 22.6221C2.64574 22.6221 0 26.3152 0 30.1456C0 33.8857 2.64574 37.5354 7.33609 37.5354C8.59237 37.5354 10.5254 37.1198 11.8717 36.0863ZM46.5795 26.9981L46.1439 35.2444C46.1043 36.0719 45.7912 36.2489 45.0244 36.314V36.8054C45.6328 36.7476 46.3635 36.6862 47.087 36.6862C47.8358 36.6862 48.5629 36.7476 49.3476 36.8054V36.314C48.1669 36.1731 48.0697 35.9599 48.0697 34.9697C48.0697 34.4385 48.1093 33.9073 48.1273 32.8811L48.2857 27.0957H48.3253L52.0798 36.9138H53.732L57.0149 27.215H57.0545L57.508 33.0979C57.5656 33.7483 57.6268 34.6373 57.6268 35.1107C57.6268 36.0177 57.3712 36.1947 56.4065 36.314V36.8054C57.2129 36.7476 58.0588 36.6862 58.9227 36.6862C59.7686 36.6862 60.6325 36.7476 61.4784 36.8054V36.314C61.0825 36.2526 60.5137 36.1731 60.4741 35.6635L59.8478 27.2366C59.7902 26.5681 59.711 25.6792 59.711 25.1263C59.711 24.5915 59.8082 24.3783 60.4957 24.3169V23.8001C59.8262 23.8615 59.1387 23.9194 58.4511 23.9194C57.7672 23.9194 57.0977 23.8615 56.4065 23.8001L53.3216 32.9497L49.884 23.8001C49.1748 23.8615 48.4657 23.9194 47.7602 23.9194C47.051 23.9194 46.3455 23.8615 45.7552 23.8001V24.3169C46.5003 24.4144 46.6371 24.4939 46.6371 25.1046C46.6407 25.896 46.6011 26.4453 46.5795 26.9981ZM29.7367 36.8091V36.3176C30.3055 36.2381 30.5646 35.9201 30.759 35.407L34.6143 25.5997C34.7294 25.3034 34.8698 25.0287 34.8698 24.8336C34.8698 24.6349 34.6538 24.3169 34.1247 24.3169V23.8001C34.7546 23.8615 35.363 23.9194 35.9713 23.9194C36.5797 23.9194 37.2096 23.8615 37.8215 23.8001L41.4392 35.0312C41.7344 35.8984 42.0295 36.1586 42.6199 36.3176V36.8091C41.7956 36.7512 40.9496 36.6898 40.1253 36.6898C39.2794 36.6898 38.4335 36.7512 37.5912 36.8091V36.3176C38.3183 36.1767 38.5739 36.0213 38.5739 35.566C38.5739 35.2913 38.4731 34.836 38.3759 34.5795L37.7495 32.6679H33.9051L33.0412 34.995C32.9404 35.2697 32.8828 35.4865 32.8828 35.6852C32.8828 36.0394 33.1564 36.2779 33.8079 36.3176V36.8091C33.1384 36.7512 32.4509 36.6898 31.7849 36.6898C31.0902 36.6898 30.4243 36.7512 29.7367 36.8091ZM34.4919 31.161H37.2636C36.8496 29.8782 36.5149 28.617 36.1225 26.6223H36.0829C35.6329 28.2015 35.003 29.7625 34.4919 31.161ZM15.7377 25.1444V35.4865C15.7377 36.0357 15.5037 36.2959 14.8306 36.314V36.8199C15.6945 36.7621 16.4648 36.7043 17.1883 36.7043C17.9191 36.7043 18.6822 36.7621 19.5461 36.8199V36.314C18.8766 36.2959 18.6426 36.0394 18.6426 35.4865V30.9442H23.4013V35.4865C23.4013 36.0357 23.1674 36.2959 22.4978 36.314V36.8163C23.3617 36.7585 24.1321 36.7006 24.8592 36.7006C25.5863 36.7006 26.353 36.7585 27.217 36.8163V36.314C26.551 36.2923 26.3135 36.0357 26.3135 35.4865V25.1444C26.3135 24.5879 26.551 24.3313 27.217 24.3169V23.8001C26.353 23.8615 25.5827 23.9194 24.8592 23.9194C24.1321 23.9194 23.3653 23.8615 22.4978 23.8001V24.3169C23.1674 24.3349 23.4013 24.5915 23.4013 25.1444V29.0507H18.6462V25.1444C18.6462 24.5879 18.8838 24.3313 19.5497 24.3169V23.8001C18.6858 23.8615 17.9191 23.9194 17.1919 23.9157C16.4648 23.9157 15.6981 23.8615 14.8342 23.8001V24.3169C15.5001 24.3349 15.7377 24.5915 15.7377 25.1444ZM117.953 32.321H117.457C117.557 33.499 117.619 34.9011 117.619 36.5055C118.976 36.9897 120.534 37.2355 122.01 37.2355C125.311 37.2355 128 35.8117 128 33.1304C128 30.4889 126.099 29.7409 124.055 29.1518L121.931 28.5411C121.099 28.2954 120.128 27.9702 120.128 26.8536C120.128 25.4515 121.827 25.1299 122.842 25.1299C124.66 25.1299 126.179 26.0044 126.603 27.8762H127.111C127.028 26.8175 126.949 25.578 126.949 24.1145C125.775 23.6881 124.458 23.464 123.187 23.464C120.171 23.464 117.133 24.4216 117.133 27.5655C117.133 29.9649 119.195 30.8394 121.261 31.4465L122.698 31.8765C123.63 32.162 124.886 32.4836 124.886 33.7014C124.886 35.2263 123.166 35.5696 121.974 35.5696C119.807 35.5732 118.357 34.5361 117.953 32.321ZM102.648 25.1371V35.4756C102.648 36.0285 102.41 36.2851 101.741 36.3031V36.7982C102.37 36.7404 103.018 36.679 103.67 36.679C104.278 36.679 104.908 36.7404 105.556 36.7982V36.3031C105.023 36.3031 104.379 36.2273 104.379 35.1974V26.6151H104.419L110.945 36.8091H113.029V25.1371C113.029 24.5806 113.263 24.3241 113.933 24.3096V23.7929C113.303 23.8543 112.658 23.9121 112.007 23.9121C111.398 23.9121 110.768 23.8543 110.121 23.7929V24.3096C110.65 24.3096 111.298 24.3891 111.298 25.4118V32.6173H111.258L105.83 23.7893C105.221 23.9085 104.631 23.9085 104.102 23.9085C103.371 23.9085 102.604 23.8507 101.741 23.7893V24.306C102.414 24.3241 102.648 24.5806 102.648 25.1371ZM78.9763 25.1444V35.4865C78.9763 36.0357 78.7424 36.2959 78.0728 36.314V36.8054C78.9368 36.7476 79.7035 36.6862 80.4306 36.6862C81.1613 36.6898 81.9281 36.7476 82.792 36.8054V36.314C82.126 36.2923 81.8885 36.0357 81.8885 35.4865V25.1444C81.8885 24.5879 82.126 24.3385 82.792 24.3169V23.8001C81.9281 23.8615 81.1613 23.9194 80.4306 23.9194C79.7035 23.9194 78.9368 23.8615 78.0728 23.8001V24.3169C78.7424 24.3385 78.9763 24.5915 78.9763 25.1444ZM68.2206 35.1287V25.7515L69.4409 25.625C71.1687 25.625 72.2702 26.2537 72.2702 28.0316C72.2702 29.6686 71.4675 30.8322 69.4049 30.8322C69.1457 30.8322 68.8937 30.7743 68.7137 30.7743C68.5374 30.7743 68.4186 30.7743 68.4186 30.9514C68.4186 31.367 69.8368 31.8584 70.7979 31.8584C73.3321 31.8584 75.1787 30.3588 75.1823 27.9124C75.1823 25.625 73.8612 23.8868 70.2256 23.8868H64.4086V24.4325C65.0781 24.4542 65.3121 24.7107 65.3121 25.2636V34.9119C65.3121 35.837 65.1753 36.1731 64.4086 36.314V36.8054C65.2725 36.7476 66.0392 36.6862 66.7663 36.6862C67.4935 36.6862 68.2638 36.7476 69.5021 36.8054V36.314C68.3574 36.0972 68.2206 35.8406 68.2206 35.1287ZM91.9639 25.5202C94.912 25.5202 95.7975 28.8736 95.7975 31.161C95.7975 33.3147 94.6348 35.1107 92.6298 35.1107C89.8185 35.1107 88.7962 31.7356 88.7962 29.4265C88.7998 27.8509 89.5269 25.5202 91.9639 25.5202ZM92.1799 37.0042C95.7003 37.0042 98.706 34.5 98.706 30.3371C98.706 26.8211 96.2907 23.6303 92.2807 23.6303C88.663 23.6303 85.8913 26.3513 85.8913 30.0986C85.8913 33.7086 88.2671 37.0042 92.1799 37.0042Z" fill="#00004B"/>
</svg>
