<svg xmlns="http://www.w3.org/2000/svg" xmlns:svgjs="http://svgjs.com/svgjs" xmlns:xlink="http://www.w3.org/1999/xlink" width="288" height="288"><svg xmlns="http://www.w3.org/2000/svg" width="288" height="288" version="1.0" viewBox="0 0 512 512"><g fill="#364f6b" class="color000 svgShape" transform="matrix(.1 0 0 -.1 0 512)"><path d="M955 4255c-201-37-368-162-456-340-58-119-69-175-69-352l0-152 373-3 372-3 67-32c94-44 160-109 206-202l37-75 0-535 0-536-31-65c-45-95-111-162-202-207l-76-38-373-3-373-3 0-152c0-177 11-234 70-352 93-188 270-314 485-345 55-7 284-10 720-8l640 3 0 439 0 438-69 25c-283 102-489 338-552 633-18 84-18 256 0 340 35 167 112 308 235 431 111 110 193 159 374 222 16 6 17 34 15 444l-3 438-660 2c-505 1-676-2-730-12zM2777 4263c-4-3-7-201-7-440 0-404 1-434 18-440 179-63 262-112 373-222 167-168 249-364 249-601 0-237-82-433-249-601-111-110-193-159-374-222-16-6-17-34-15-444l3-438 640-3c436-2 665 1 720 8 215 31 392 157 485 345 59 118 70 175 70 352l0 152-372 3-373 3-65 31c-95 45-162 111-207 202l-38 76 0 536 0 536 38 76c45 91 112 157 207 202l65 31 373 3 372 3 0 152c0 177-11 234-70 352-89 181-255 304-460 341-58 10-222 13-726 14-358 0-654-3-657-7z" class="color000 svgShape"/><path d="M430 2560l0-430 318 2 317 3 0 425 0 425-317 3-318 2 0-430zM4055 2977c-3-6-4-199-3-427l3-415 318-3 317-2 0 430 0 430-315 0c-243 0-317-3-320-13zM2265 2866c-98-96-148-243-126-368 16-92 62-181 126-244 31-30 62-54 70-54 13 0 15 52 15 360 0 308-2 360-15 360-8 0-39-24-70-54zM2770 2560c0-308 2-360 15-360 8 0 39 24 70 54 98 96 148 243 126 368-16 92-62 181-126 244-31 30-62 54-70 54-13 0-15-52-15-360z" class="color000 svgShape"/></g></svg></svg>